<svg xmlns="http://www.w3.org/2000/svg" viewBox="0 0 880 950" width="880" height="950" font-family="Helvetica, Arial, sans-serif">
  <rect x="0" y="0" width="880" height="950" fill="#fbfaf7"/>

  <text x="55" y="34" font-size="20" font-weight="bold" fill="#2c2c2c">Innenhof-Beet über Tiefgarage – Grundriss (Draufsicht), 7,00 × 2,00 m</text>
  <text x="55" y="55" font-size="13" fill="#666">Maßstab 1 : 100 · ca. 115 Stauden (8 Stk/m²) · nur flachwurzelnde, frostharte Arten · Buchstabe = Art, Zahl = Stückzahl im Block</text>

  <rect x="55" y="66" width="770" height="18" fill="#7fa06a"/>
  <text x="440" y="79" font-size="11" fill="#ffffff" text-anchor="middle" font-weight="bold">HECKE (Hainbuche) – steht ebenfalls auf der Decke · 40 cm Abstand · Wurzelraum nicht anschneiden</text>

  <rect x="55" y="90" width="770" height="220" fill="#efe9dd" stroke="#8a8377" stroke-width="2"/>

  <!-- REIHE A – hinten -->
  <g stroke="#ffffff" stroke-width="1.5">
    <rect x="55"  y="90" width="154" height="71.5" fill="#d8dcb0"/>
    <rect x="209" y="90" width="176" height="71.5" fill="#b9c9e8"/>
    <rect x="385" y="90" width="154" height="71.5" fill="#ddd6ea"/>
    <rect x="539" y="90" width="165" height="71.5" fill="#d8dcb0"/>
    <rect x="704" y="90" width="121" height="71.5" fill="#b9c9e8"/>
  </g>
  <g fill="#1c1c1c" text-anchor="middle">
    <text x="132" y="134" font-size="26" font-weight="bold">E<tspan font-size="17" font-weight="normal"> ×4</tspan></text>
    <text x="297" y="134" font-size="26" font-weight="bold">P<tspan font-size="17" font-weight="normal"> ×5</tspan></text>
    <text x="462" y="134" font-size="26" font-weight="bold">M<tspan font-size="17" font-weight="normal"> ×5</tspan></text>
    <text x="621" y="134" font-size="26" font-weight="bold">E<tspan font-size="17" font-weight="normal"> ×5</tspan></text>
    <text x="764" y="134" font-size="26" font-weight="bold">P<tspan font-size="17" font-weight="normal"> ×3</tspan></text>
  </g>

  <!-- REIHE B – Mitte -->
  <g stroke="#ffffff" stroke-width="1.5">
    <rect x="55"  y="161.5" width="132" height="77" fill="#b49ad6"/>
    <rect x="187" y="161.5" width="110" height="77" fill="#f0b0a4"/>
    <rect x="297" y="161.5" width="88"  height="77" fill="#cfe4e0"/>
    <rect x="385" y="161.5" width="143" height="77" fill="#f2cf8a"/>
    <rect x="528" y="161.5" width="121" height="77" fill="#b49ad6"/>
    <rect x="649" y="161.5" width="110" height="77" fill="#f0b0a4"/>
    <rect x="759" y="161.5" width="66"  height="77" fill="#cfe4e0"/>
  </g>
  <g fill="#1c1c1c" text-anchor="middle">
    <text x="121" y="209" font-size="26" font-weight="bold">S<tspan font-size="17" font-weight="normal"> ×8</tspan></text>
    <text x="242" y="209" font-size="26" font-weight="bold">F<tspan font-size="17" font-weight="normal"> ×6</tspan></text>
    <text x="341" y="209" font-size="26" font-weight="bold">C<tspan font-size="17" font-weight="normal"> ×5</tspan></text>
    <text x="456" y="209" font-size="26" font-weight="bold">A<tspan font-size="17" font-weight="normal"> ×9</tspan></text>
    <text x="588" y="209" font-size="26" font-weight="bold">S<tspan font-size="17" font-weight="normal"> ×7</tspan></text>
    <text x="704" y="209" font-size="26" font-weight="bold">F<tspan font-size="17" font-weight="normal"> ×6</tspan></text>
    <text x="792" y="209" font-size="24" font-weight="bold">C<tspan font-size="15" font-weight="normal"> ×4</tspan></text>
  </g>

  <!-- REIHE C – vorne -->
  <g stroke="#ffffff" stroke-width="1.5">
    <rect x="55"  y="238.5" width="88"  height="71.5" fill="#8fc9bd"/>
    <rect x="143" y="238.5" width="110" height="71.5" fill="#a8d3e0"/>
    <rect x="253" y="238.5" width="110" height="71.5" fill="#b6d6a0"/>
    <rect x="363" y="238.5" width="88"  height="71.5" fill="#f2c4d8"/>
    <rect x="451" y="238.5" width="55"  height="71.5" fill="#d986b4"/>
    <rect x="506" y="238.5" width="77"  height="71.5" fill="#a8d3e0"/>
    <rect x="583" y="238.5" width="77"  height="71.5" fill="#8fc9bd"/>
    <rect x="660" y="238.5" width="110" height="71.5" fill="#b6d6a0"/>
    <rect x="770" y="238.5" width="55"  height="71.5" fill="#d986b4"/>
  </g>
  <g fill="#1c1c1c" text-anchor="middle">
    <text x="99"  y="282" font-size="22" font-weight="bold">H<tspan font-size="14" font-weight="normal"> ×5</tspan></text>
    <text x="198" y="282" font-size="22" font-weight="bold">N<tspan font-size="14" font-weight="normal"> ×7</tspan></text>
    <text x="308" y="282" font-size="22" font-weight="bold">T<tspan font-size="14" font-weight="normal"> ×7</tspan></text>
    <text x="407" y="282" font-size="22" font-weight="bold">G<tspan font-size="14" font-weight="normal"> ×6</tspan></text>
    <text x="478" y="282" font-size="22" font-weight="bold">D<tspan font-size="14" font-weight="normal"> ×3</tspan></text>
    <text x="544" y="282" font-size="22" font-weight="bold">N<tspan font-size="14" font-weight="normal"> ×5</tspan></text>
    <text x="621" y="282" font-size="22" font-weight="bold">H<tspan font-size="14" font-weight="normal"> ×5</tspan></text>
    <text x="715" y="282" font-size="22" font-weight="bold">T<tspan font-size="14" font-weight="normal"> ×7</tspan></text>
    <text x="797" y="282" font-size="22" font-weight="bold">D<tspan font-size="14" font-weight="normal"> ×3</tspan></text>
  </g>

  <g font-size="10" fill="#6b6459" text-anchor="start">
    <text x="833" y="120">hinten</text>
    <text x="833" y="132">80–110 cm</text>
    <text x="833" y="194">Mitte</text>
    <text x="833" y="206">40–60 cm</text>
    <text x="833" y="268">vorne</text>
    <text x="833" y="280">15–35 cm</text>
  </g>

  <rect x="55" y="310" width="770" height="20" fill="#b8b3ab"/>
  <text x="440" y="324" font-size="11" fill="#ffffff" text-anchor="middle" font-weight="bold">BETONKANTE / SITZKANTE – vorne niedrig bleiben</text>
  <text x="440" y="348" font-size="11" fill="#777" text-anchor="middle">Weg (Zugang, von hier aus wird gepflegt)</text>

  <g stroke="#6b6459" stroke-width="1" fill="none">
    <line x1="55" y1="378" x2="825" y2="378"/>
    <line x1="55" y1="373" x2="55" y2="383"/>
    <line x1="825" y1="373" x2="825" y2="383"/>
    <line x1="38" y1="90" x2="38" y2="310"/>
    <line x1="33" y1="90" x2="43" y2="90"/>
    <line x1="33" y1="310" x2="43" y2="310"/>
  </g>
  <text x="440" y="372" font-size="12" fill="#6b6459" text-anchor="middle">7,00 m</text>
  <text x="26" y="204" font-size="12" fill="#6b6459" text-anchor="middle" transform="rotate(-90 26 204)">2,00 m</text>

  <text x="55" y="418" font-size="15" font-weight="bold" fill="#2c2c2c">Legende</text>

  <g font-size="13" fill="#2c2c2c">
    <rect x="55" y="430" width="22" height="18" fill="#b9c9e8" stroke="#8a8377"/>
    <text x="66" y="444" font-size="14" font-weight="bold" text-anchor="middle">P</text>
    <text x="88" y="444">Blauraute · Perovskia `Blue Spire` — 8 Stk</text>

    <rect x="55" y="454" width="22" height="18" fill="#d8dcb0" stroke="#8a8377"/>
    <text x="66" y="468" font-size="14" font-weight="bold" text-anchor="middle">E</text>
    <text x="88" y="468">Silber-Ährengras · Achnatherum calamagr. — 9 Stk</text>

    <rect x="55" y="478" width="22" height="18" fill="#ddd6ea" stroke="#8a8377"/>
    <text x="66" y="492" font-size="14" font-weight="bold" text-anchor="middle">M</text>
    <text x="88" y="492">Myrtenaster · Aster ericoides `Erlkönig` — 5 Stk</text>

    <rect x="55" y="502" width="22" height="18" fill="#b49ad6" stroke="#8a8377"/>
    <text x="66" y="516" font-size="14" font-weight="bold" text-anchor="middle">S</text>
    <text x="88" y="516">Steppen-Salbei · Salvia `Caradonna` — 15 Stk</text>

    <rect x="55" y="526" width="22" height="18" fill="#f0b0a4" stroke="#8a8377"/>
    <text x="66" y="540" font-size="14" font-weight="bold" text-anchor="middle">F</text>
    <text x="88" y="540">Fetthenne · Sedum telephium `Matrona` — 12 Stk</text>

    <rect x="55" y="550" width="22" height="18" fill="#f2cf8a" stroke="#8a8377"/>
    <text x="66" y="564" font-size="14" font-weight="bold" text-anchor="middle">A</text>
    <text x="88" y="564">Schafgarbe · Achillea `Terracotta` — 9 Stk</text>

    <rect x="450" y="430" width="22" height="18" fill="#cfe4e0" stroke="#8a8377"/>
    <text x="461" y="444" font-size="14" font-weight="bold" text-anchor="middle">C</text>
    <text x="483" y="444">Steinquendel · Calamintha nepeta — 9 Stk</text>

    <rect x="450" y="454" width="22" height="18" fill="#a8d3e0" stroke="#8a8377"/>
    <text x="461" y="468" font-size="14" font-weight="bold" text-anchor="middle">N</text>
    <text x="483" y="468">Katzenminze · Nepeta `Walker's Low` — 12 Stk</text>

    <rect x="450" y="478" width="22" height="18" fill="#b6d6a0" stroke="#8a8377"/>
    <text x="461" y="492" font-size="14" font-weight="bold" text-anchor="middle">T</text>
    <text x="483" y="492">Thymian · Thymus praecox / vulgaris — 14 Stk</text>

    <rect x="450" y="502" width="22" height="18" fill="#8fc9bd" stroke="#8a8377"/>
    <text x="461" y="516" font-size="14" font-weight="bold" text-anchor="middle">H</text>
    <text x="483" y="516">Herbst-Blaugras · Sesleria autumnalis — 10 Stk</text>

    <rect x="450" y="526" width="22" height="18" fill="#d986b4" stroke="#8a8377"/>
    <text x="461" y="540" font-size="14" font-weight="bold" text-anchor="middle">D</text>
    <text x="483" y="540">Karthäusernelke · Dianthus carthusianorum — 6 Stk</text>

    <rect x="450" y="550" width="22" height="18" fill="#f2c4d8" stroke="#8a8377"/>
    <text x="461" y="564" font-size="14" font-weight="bold" text-anchor="middle">G</text>
    <text x="483" y="564">Blut-Storchschnabel · Geranium sanguineum — 6 Stk</text>
  </g>

  <text x="55" y="586" font-size="12" fill="#666">Zwiebeln (250 Stk) dazwischen streuen – kein fester Platz. Nur kleine Wildarten: Allium sphaerocephalon, Crocus, Wildtulpe.</text>

  <line x1="55" y1="600" x2="825" y2="600" stroke="#ddd8cf" stroke-width="1"/>
  <text x="55" y="620" font-size="12" fill="#666">Pflanzabstände: Reihe hinten ca. 55–65 cm · Mitte ca. 35 cm · vorne ca. 28 cm. Dichter als im Gartenboden – schließt die Fläche schneller.</text>
  <text x="55" y="638" font-size="12" fill="#666">Blockgrenzen sind Richtwerte – an den Rändern die Gruppen leicht ineinander laufen lassen, das wirkt natürlicher.</text>
  <text x="55" y="656" font-size="12" fill="#c0392b" font-weight="bold">Kein Spaten, keine Grabegabel! Nur Handschaufel. Gullys und Notüberläufe freihalten, nicht überschütten oder bepflanzen.</text>

  <!-- SCHNITT -->
  <text x="55" y="694" font-size="15" font-weight="bold" fill="#2c2c2c">Schichtaufbau über der Tiefgaragendecke (Schnitt, schematisch)</text>

  <g stroke="#8a8377" stroke-width="0.8">
    <rect x="55" y="706" width="450" height="15"  fill="#8d8378"/>
    <rect x="55" y="721" width="450" height="90"  fill="#a1815c"/>
    <rect x="55" y="811" width="450" height="6"   fill="#ececec"/>
    <rect x="55" y="817" width="450" height="22"  fill="#c96f4a"/>
    <rect x="55" y="839" width="450" height="6"   fill="#dcdcdc"/>
    <rect x="55" y="845" width="450" height="11"  fill="#333333"/>
    <rect x="55" y="856" width="450" height="30"  fill="#9a9a9a"/>
  </g>
  <g stroke="#ffffff" stroke-width="1.2" opacity="0.5">
    <line x1="85"  y1="886" x2="115" y2="856"/>
    <line x1="145" y1="886" x2="175" y2="856"/>
    <line x1="205" y1="886" x2="235" y2="856"/>
    <line x1="265" y1="886" x2="295" y2="856"/>
    <line x1="325" y1="886" x2="355" y2="856"/>
    <line x1="385" y1="886" x2="415" y2="856"/>
    <line x1="445" y1="886" x2="475" y2="856"/>
  </g>

  <g stroke="#8a8377" stroke-width="0.8" fill="none">
    <polyline points="505,713 516,713 520,713"/>
    <polyline points="505,766 516,766 520,767"/>
    <polyline points="505,814 512,814 520,822"/>
    <polyline points="505,828 512,828 520,840"/>
    <polyline points="505,842 512,842 520,858"/>
    <polyline points="505,850 512,850 520,876"/>
    <polyline points="505,871 512,871 520,894"/>
  </g>
  <g font-size="11" fill="#2c2c2c">
    <text x="526" y="717"><tspan font-weight="bold">5 cm Lava-Mulch 8/16</tspan> – leicht, ca. 45 kg/m²</text>
    <text x="526" y="771"><tspan font-weight="bold">25–35 cm Dachgarten-Substrat</tspan> – mineralisch, mager</text>
    <text x="526" y="826">Filtervlies</text>
    <text x="526" y="844"><tspan font-weight="bold">6–8 cm Dränschicht</tspan> (Lava/Bims) oder Dränmatte</text>
    <text x="526" y="862">Schutzvlies 300 g/m²</text>
    <text x="526" y="880" fill="#c0392b"><tspan font-weight="bold">Abdichtung + Wurzelschutzbahn (FLL)</tspan> – Zustand prüfen!</text>
    <text x="526" y="898"><tspan font-weight="bold">Stahlbetondecke Tiefgarage</tspan> – Traglast beim Verwalter erfragen</text>
  </g>

  <g stroke="#6b6459" stroke-width="1" fill="none">
    <line x1="40" y1="706" x2="40" y2="856"/>
    <line x1="35" y1="706" x2="45" y2="706"/>
    <line x1="35" y1="856" x2="45" y2="856"/>
  </g>
  <text x="28" y="781" font-size="11" fill="#6b6459" text-anchor="middle" transform="rotate(-90 28 781)">ca. 40 cm</text>

  <text x="55" y="920" font-size="12" fill="#666">Flächenlast wassergesättigt inkl. Pflanzen: <tspan font-weight="bold">ca. 520 kg/m²</tspan> (≈ 7,3 t auf 14 m²). Mit Mutterboden + Granitsplitt wären es 750–850 kg/m².</text>
  <text x="55" y="938" font-size="12" fill="#666">Bestandshöhe nicht aufstocken: gleiche Oberkante wie bisher = gleiche Last. Jede Aufhöhung vorher schriftlich freigeben lassen.</text>
</svg>
